<?xml version="1.0" standalone="no"?>
<!DOCTYPE svg PUBLIC "-//W3C//DTD SVG 20010904//EN"
 "http://www.w3.org/TR/2001/REC-SVG-20010904/DTD/svg10.dtd">
<svg version="1.0" xmlns="http://www.w3.org/2000/svg"
 width="1920.000000pt" height="1080.000000pt" viewBox="0 0 1920.000000 1080.000000"
 preserveAspectRatio="xMidYMid meet">
<metadata>
Created by potrace 1.16, written by Peter Selinger 2001-2019
</metadata>
<g transform="translate(0.000000,1080.000000) scale(0.100000,-0.100000)"
fill="#000000" stroke="none">
<path d="M4796 6092 c-4 -10 1 -38 9 -62 23 -65 23 -1210 0 -1265 -9 -20 -13
-45 -10 -56 6 -18 17 -19 176 -19 194 0 190 -2 170 83 -8 36 -11 137 -9 321
l3 269 54 -133 c30 -72 61 -138 68 -146 16 -15 168 -20 191 -6 6 5 41 75 77
158 l65 149 -6 -285 c-4 -213 -9 -297 -21 -333 -25 -79 -27 -78 169 -75 172 3
173 3 176 26 2 13 -4 44 -12 69 -24 70 -24 1156 0 1226 8 25 14 56 12 69 -3
23 -5 23 -159 26 l-156 2 -118 -270 c-70 -161 -121 -266 -125 -258 -4 7 -56
123 -115 258 -60 135 -113 251 -118 258 -7 9 -52 12 -163 12 -139 0 -153 -2
-158 -18z"/>
<path d="M7463 6094 c-3 -9 1 -40 11 -68 14 -47 16 -121 16 -626 0 -505 -2
-579 -16 -626 -27 -85 -30 -84 166 -84 197 0 193 -2 166 88 -14 46 -16 91 -14
237 l3 180 160 3 160 3 62 61 63 62 0 331 0 331 -63 62 -63 62 -322 0 c-287 0
-323 -2 -329 -16z m472 -439 l0 -150 -72 -3 -73 -3 0 149 c0 82 3 152 7 156 4
4 37 6 73 4 l65 -3 0 -150z"/>
<path d="M5983 5783 c-7 -17 5 -40 49 -95 14 -18 83 -161 153 -318 l126 -285
-5 -160 c-2 -88 -6 -176 -8 -195 l-3 -35 166 -3 c188 -3 189 -3 164 69 -10 29
-15 84 -15 179 l0 138 130 293 c82 184 144 309 166 336 22 27 34 51 32 66 -3
22 -3 22 -198 22 l-195 0 -3 -23 c-2 -13 2 -30 9 -38 9 -12 3 -38 -36 -139
-26 -69 -50 -125 -54 -125 -3 0 -27 55 -52 121 -39 102 -45 126 -36 149 22 58
16 60 -193 60 -168 0 -191 -2 -197 -17z"/>
<path d="M8336 5782 c-4 -11 0 -35 9 -55 22 -54 22 -917 0 -970 -27 -65 -23
-67 165 -67 188 0 192 2 165 67 -11 26 -15 74 -15 179 0 134 1 144 19 144 26
0 95 -228 95 -320 l1 -65 168 -3 c195 -3 194 -4 155 86 -14 31 -43 117 -64
190 l-38 134 35 26 c74 58 69 35 69 317 l0 255 -62 49 -63 50 -317 1 c-299 0
-317 -1 -322 -18z m464 -342 l0 -110 -70 0 -70 0 0 110 0 110 70 0 70 0 0
-110z"/>
<path d="M9335 5769 c-22 -16 -50 -39 -62 -49 l-23 -20 0 -454 0 -455 62 -51
63 -50 241 0 242 0 54 41 c29 23 59 49 66 57 9 12 12 119 12 457 0 338 -3 445
-12 457 -7 8 -37 34 -66 57 l-54 41 -241 0 -242 -1 -40 -30z m345 -524 l0
-305 -70 0 -70 0 0 305 0 305 70 0 70 0 0 -305z"/>
<path d="M10523 5784 c-3 -9 1 -37 11 -63 14 -40 16 -96 16 -413 l0 -368 -70
0 -70 0 0 80 c0 54 5 91 16 111 8 16 12 39 9 49 -6 19 -17 20 -176 20 -194 0
-194 0 -165 -79 12 -35 16 -81 16 -187 l0 -142 62 -51 63 -51 244 0 243 0 52
42 c28 23 57 48 64 57 9 11 12 119 12 462 0 373 2 452 15 482 27 65 23 67
-166 67 -147 0 -170 -2 -176 -16z"/>
<path d="M10996 5785 c-3 -9 1 -32 9 -52 22 -53 22 -916 0 -970 -9 -20 -13
-44 -9 -55 5 -17 25 -18 365 -18 l359 0 9 23 c16 44 44 215 38 232 -6 14 -15
16 -55 11 -26 -4 -125 -9 -219 -12 l-173 -6 0 91 0 91 51 0 c27 0 70 -5 95
-11 71 -18 75 -10 72 145 l-3 131 -40 -2 c-22 0 -70 -4 -107 -8 l-68 -8 0 92
0 91 148 0 c82 -1 174 -6 208 -14 103 -22 110 -6 71 164 l-22 95 -361 3 c-321
2 -362 0 -368 -13z"/>
<path d="M11945 5769 c-22 -16 -50 -39 -62 -49 l-23 -20 0 -454 0 -455 62 -51
63 -50 243 0 244 0 52 42 c28 23 56 46 61 50 6 5 13 57 17 116 4 59 9 125 10
147 l3 40 -168 3 c-186 3 -193 0 -167 -62 7 -17 15 -43 17 -58 l5 -28 -71 0
-71 0 0 305 0 305 71 0 71 0 -5 -27 c-2 -16 -10 -42 -17 -59 -26 -62 -19 -65
167 -62 l168 3 -3 40 c-2 22 -5 81 -8 130 -2 50 -6 99 -9 111 -2 11 -31 42
-64 67 l-59 47 -244 0 -243 -1 -40 -30z"/>
<path d="M12736 5792 c-11 -19 -47 -204 -44 -230 3 -30 0 -30 186 -16 l92 6 0
-381 c0 -326 -2 -386 -16 -412 -8 -16 -12 -39 -9 -49 6 -19 17 -20 176 -20
192 0 193 0 165 73 -14 37 -16 96 -16 416 l0 374 93 -8 c179 -14 182 -14 185
17 3 26 -33 211 -44 230 -7 11 -761 11 -768 0z"/>
<path d="M13706 5750 l-66 -51 0 -232 c0 -171 3 -238 13 -250 6 -9 36 -35 66
-57 l55 -40 153 0 153 0 0 -90 0 -90 -70 0 c-80 0 -82 3 -54 77 28 73 27 74
-163 71 l-168 -3 3 -35 c2 -19 5 -85 8 -147 l6 -112 65 -50 66 -51 241 0 241
0 63 50 62 51 0 239 0 239 -62 51 -63 50 -157 0 -158 0 0 90 0 90 71 0 72 0
-8 -42 c-4 -24 -8 -56 -8 -73 l-2 -30 168 -3 c192 -3 192 -3 163 77 -10 29
-16 77 -16 133 l0 87 -61 51 -60 50 -243 0 -243 0 -67 -50z"/>
</g>
</svg>
