<?xml version="1.0" standalone="no"?>
<!DOCTYPE svg PUBLIC "-//W3C//DTD SVG 20010904//EN"
 "http://www.w3.org/TR/2001/REC-SVG-20010904/DTD/svg10.dtd">
<svg version="1.0" xmlns="http://www.w3.org/2000/svg"
 width="1920.000000pt" height="1080.000000pt" viewBox="0 0 1920.000000 1080.000000"
 preserveAspectRatio="xMidYMid meet">
<metadata>
Created by potrace 1.16, written by Peter Selinger 2001-2019
</metadata>
<g transform="translate(0.000000,1080.000000) scale(0.100000,-0.100000)"
fill="#000000" stroke="none">
<path d="M3636 5921 c-70 -23 -155 -79 -191 -127 -14 -19 -38 -60 -53 -92
l-27 -57 -3 -392 -3 -393 131 0 130 0 0 358 c0 352 1 358 23 397 41 73 125
107 210 84 61 -16 91 -42 118 -101 24 -52 24 -59 27 -395 l3 -343 130 0 129 0
0 358 c0 352 1 358 23 397 69 122 261 125 331 5 20 -33 21 -53 24 -397 l4
-363 129 0 129 0 0 338 c0 187 -5 366 -11 402 -20 128 -95 237 -198 289 -148
76 -392 68 -519 -18 l-44 -29 -56 34 c-80 49 -112 56 -252 60 -103 3 -135 1
-184 -15z"/>
<path d="M9556 5925 c-185 -52 -334 -201 -381 -380 -22 -85 -20 -228 5 -306
54 -175 184 -306 359 -366 78 -27 244 -31 326 -9 192 51 352 212 394 396 16
67 13 214 -5 284 -42 164 -174 307 -339 368 -76 28 -282 35 -359 13z m277
-247 c61 -26 140 -112 161 -174 69 -203 -74 -418 -279 -418 -49 0 -72 6 -123
34 -73 39 -115 83 -150 158 -20 45 -24 65 -20 125 4 86 31 148 91 207 95 96
202 118 320 68z"/>
<path d="M5010 5713 l0 -218 28 -60 c52 -109 173 -200 320 -241 l62 -17 0
-159 0 -158 130 0 130 0 0 159 0 159 83 26 c142 44 252 131 303 240 23 49 24
60 24 269 l0 217 -130 0 -130 0 0 -174 c0 -96 -4 -186 -10 -200 -16 -42 -88
-104 -146 -126 -67 -25 -180 -27 -246 -4 -53 17 -122 73 -143 115 -12 22 -15
69 -15 209 l0 180 -130 0 -130 0 0 -217z"/>
<path d="M6760 5395 l0 -535 130 0 130 0 0 420 0 420 138 0 c286 -1 412 -39
412 -127 0 -50 -16 -72 -66 -94 -45 -21 -203 -39 -336 -39 l-68 0 0 -125 0
-125 183 0 c257 0 367 29 461 123 67 68 90 125 94 240 5 120 -8 173 -59 237
-47 60 -153 115 -249 130 -36 5 -224 10 -417 10 l-353 0 0 -535z"/>
<path d="M7960 5395 l0 -535 130 0 130 0 0 420 0 420 143 0 c281 -1 407 -40
407 -127 0 -50 -16 -72 -66 -94 -45 -21 -203 -39 -336 -39 l-68 0 0 -125 0
-125 148 0 c169 0 203 -7 250 -52 58 -56 82 -116 82 -203 l0 -75 131 0 131 0
-4 133 c-3 120 -6 137 -30 187 -15 30 -43 71 -61 90 l-35 35 52 56 c67 72 80
115 74 246 -6 142 -47 209 -165 268 -99 49 -156 55 -550 55 l-363 0 0 -535z"/>
<path d="M11208 5582 l-3 -348 -32 -40 c-64 -81 -196 -126 -307 -104 -73 14
-110 32 -154 74 -51 47 -62 76 -62 161 l0 75 -131 0 -131 0 4 -122 c2 -104 7
-130 26 -170 54 -109 195 -208 347 -244 110 -25 297 -16 395 21 137 51 232
129 281 230 l29 60 0 378 0 377 -130 0 -129 0 -3 -348z"/>
<path d="M11995 5916 c-170 -54 -330 -197 -385 -343 -19 -51 -21 -74 -18 -193
3 -129 5 -139 35 -200 59 -120 178 -227 323 -291 53 -23 65 -24 328 -27 l272
-3 0 115 0 115 -232 3 c-265 3 -274 6 -369 95 -95 89 -126 211 -78 310 30 62
99 134 161 168 l53 30 233 3 232 3 0 115 0 114 -257 -1 c-179 0 -270 -4 -298
-13z"/>
<path d="M13055 5916 c-170 -54 -330 -197 -385 -343 -19 -51 -21 -74 -18 -193
3 -129 5 -139 35 -200 59 -120 178 -227 323 -291 53 -23 66 -24 313 -27 l257
-3 0 115 0 115 -217 3 -218 3 -53 30 c-62 34 -131 106 -161 168 -48 99 -17
221 78 310 94 88 106 92 354 95 l217 3 0 115 0 114 -242 -1 c-167 0 -256 -4
-283 -13z"/>
<path d="M13700 5815 l0 -115 185 0 185 0 0 -420 0 -420 130 0 130 0 0 420 0
420 180 0 180 0 0 115 0 115 -495 0 -495 0 0 -115z"/>
<path d="M15044 5915 c-79 -17 -119 -38 -172 -88 -60 -58 -82 -123 -82 -240 0
-109 17 -154 78 -209 84 -76 156 -95 402 -108 237 -13 267 -17 291 -41 27 -27
22 -76 -11 -101 -41 -30 -130 -38 -452 -38 l-308 0 0 -115 0 -115 363 0 c452
0 506 9 600 99 64 60 80 102 85 218 5 119 -6 159 -56 215 -80 89 -165 115
-422 128 -290 15 -314 22 -308 87 7 81 67 93 481 93 l307 0 0 115 0 115 -367
-1 c-267 0 -385 -4 -429 -14z"/>
<path d="M11980 5395 l0 -125 250 0 250 0 0 125 0 125 -250 0 -250 0 0 -125z"/>
</g>
</svg>
