<?xml version="1.0" standalone="no"?>
<!DOCTYPE svg PUBLIC "-//W3C//DTD SVG 20010904//EN"
 "http://www.w3.org/TR/2001/REC-SVG-20010904/DTD/svg10.dtd">
<svg version="1.0" xmlns="http://www.w3.org/2000/svg"
 width="1920.000000pt" height="1080.000000pt" viewBox="0 0 1920.000000 1080.000000"
 preserveAspectRatio="xMidYMid meet">
<metadata>
Created by potrace 1.16, written by Peter Selinger 2001-2019
</metadata>
<g transform="translate(0.000000,1080.000000) scale(0.100000,-0.100000)"
fill="#000000" stroke="none">
<path d="M3668 6083 l-138 -4 0 -654 c0 -639 0 -654 19 -660 11 -3 23 -15 26
-26 6 -18 15 -19 153 -17 l147 3 3 497 2 496 69 4 69 3 6 -59 c3 -32 6 -74 6
-93 0 -25 8 -43 29 -64 l29 -29 146 0 146 0 0 125 0 125 59 0 c33 0 66 3 75 6
14 6 16 -40 16 -467 l0 -473 42 -39 41 -39 124 4 c97 2 126 6 133 18 6 9 10
223 10 527 0 496 -1 513 -19 523 -11 5 -23 19 -26 30 -6 18 -15 20 -106 20
l-99 0 0 95 c0 77 -3 95 -15 95 -8 0 -22 14 -30 30 l-16 31 -142 -3 -142 -3
-3 -122 -3 -123 -77 0 -77 0 3 91 c3 81 2 91 -15 95 -10 3 -26 18 -35 35 l-17
29 -128 -2 c-70 -1 -190 -4 -265 -5z m302 -183 c0 -19 -7 -20 -195 -20 -188 0
-195 1 -195 20 0 19 7 20 195 20 188 0 195 -1 195 -20z"/>
<path d="M6955 6078 c-3 -7 -4 -303 -3 -658 l3 -645 23 -10 c12 -5 22 -18 22
-27 0 -16 13 -18 131 -18 72 0 139 5 150 10 18 10 19 24 19 250 l0 240 219 0
c120 0 233 3 250 6 l31 7 0 257 c0 142 -3 266 -6 275 -4 9 -17 21 -30 26 -13
4 -24 15 -24 23 0 19 -32 26 -122 26 l-78 0 0 90 c0 84 -1 90 -25 106 -14 9
-25 22 -25 29 0 7 -7 16 -16 19 -9 3 -128 6 -265 6 -191 0 -251 -3 -254 -12z
m495 -423 l0 -75 -37 0 c-21 0 -55 3 -75 6 l-38 7 0 63 0 63 63 4 c34 2 68 4
75 5 9 1 12 -19 12 -73z m190 -150 c0 -13 -42 -15 -315 -15 -273 0 -315 2
-315 15 0 13 42 15 315 15 273 0 315 -2 315 -15z"/>
<path d="M15243 6083 l-173 -3 0 -125 0 -125 -125 0 -125 0 0 -276 c0 -257 1
-276 18 -281 10 -2 22 -14 27 -26 10 -21 16 -22 222 -27 116 -3 214 -7 216
-10 3 -3 9 -33 12 -67 l8 -63 -249 -2 -249 -3 -3 -146 -3 -146 30 -32 29 -31
269 2 268 3 3 118 3 117 104 0 c57 0 115 4 129 10 l26 10 0 269 0 269 -25 16
c-14 9 -25 23 -25 31 0 12 -19 15 -108 15 -60 0 -164 3 -230 7 l-122 6 0 64 0
63 224 0 c123 0 238 3 255 6 l31 7 0 138 0 139 -37 40 -38 40 -95 -2 c-52 -1
-173 -4 -267 -5z m287 -578 c0 -13 -44 -15 -332 -15 -215 0 -329 3 -322 10 9
9 107 13 492 18 138 2 162 0 162 -13z"/>
<path d="M5150 5800 c0 -278 0 -280 21 -280 12 0 23 -8 26 -20 5 -18 14 -20
98 -20 l92 0 6 -107 c4 -58 7 -214 7 -345 l0 -239 35 -34 34 -35 135 0 c113 0
135 2 140 16 3 9 6 180 6 380 l0 364 125 0 125 0 0 270 c0 229 -2 270 -14 270
-8 0 -21 12 -28 28 l-13 27 -145 0 -145 0 -3 -252 -2 -253 -34 0 c-18 0 -54 3
-80 6 l-46 7 0 217 c0 185 -2 219 -15 224 -8 3 -20 17 -25 31 l-10 25 -145 0
-145 0 0 -280z"/>
<path d="M8075 6068 c-3 -7 -4 -301 -3 -653 l3 -640 22 -10 c12 -5 24 -17 27
-27 4 -17 16 -18 148 -16 l143 3 3 248 2 247 75 0 75 0 0 -225 c0 -208 1 -225
18 -225 9 0 22 -10 27 -22 10 -22 14 -23 155 -23 l145 0 3 267 2 267 -25 17
c-14 9 -25 22 -25 29 0 20 -24 25 -116 25 l-84 0 0 70 0 70 125 0 125 0 0 151
c0 142 -1 151 -20 156 -11 3 -20 9 -20 13 0 5 -7 16 -16 24 -12 12 -37 16
-105 16 l-89 0 0 96 c0 86 -2 96 -19 101 -11 3 -22 16 -25 29 l-6 24 -271 0
c-206 0 -271 -3 -274 -12z m495 -418 l0 -70 -75 0 -75 0 0 64 0 65 43 4 c23 2
57 4 75 5 l32 2 0 -70z m-50 -150 c0 -19 -7 -20 -195 -20 -188 0 -195 1 -195
20 0 19 7 20 195 20 188 0 195 -1 195 -20z"/>
<path d="M9206 6064 c-3 -9 -6 -303 -6 -655 0 -578 2 -639 16 -639 9 0 18 -9
21 -20 3 -11 15 -23 27 -25 11 -3 192 -4 401 -3 l380 3 3 523 c1 334 -1 522
-8 522 -5 0 -23 14 -40 30 -29 29 -35 30 -115 30 l-85 0 0 95 c0 93 -1 96 -25
105 -14 5 -25 16 -25 24 0 7 -7 17 -16 20 -9 3 -130 6 -269 6 -221 0 -254 -2
-259 -16z m486 -511 c2 -93 2 -237 0 -320 l-3 -153 -69 0 -70 0 0 314 0 315
43 4 c23 2 54 4 69 5 l27 2 3 -167z m109 -550 c165 -11 66 -22 -221 -22 -276
-1 -391 8 -260 20 97 8 374 10 481 2z m89 -108 c0 -13 -42 -15 -320 -15 -278
0 -320 2 -320 15 0 13 42 15 320 15 278 0 320 -2 320 -15z"/>
<path d="M10326 6064 c-3 -9 -6 -78 -6 -155 0 -130 1 -139 19 -139 10 0 26
-11 35 -25 l16 -25 215 0 215 0 0 -78 c0 -43 3 -187 7 -320 l6 -242 -76 0 -77
0 0 95 c0 54 -4 95 -10 95 -5 0 -20 11 -33 25 -23 25 -25 26 -163 23 l-139 -3
-3 -272 c-2 -264 -2 -272 18 -283 11 -6 20 -17 20 -24 0 -8 7 -17 16 -20 21
-8 323 -8 447 1 l97 6 0 118 0 117 115 4 c89 2 118 6 125 18 6 9 10 222 10
526 l0 511 -25 11 c-14 6 -25 18 -25 26 0 7 -7 17 -16 20 -9 3 -188 6 -399 6
-340 0 -384 -2 -389 -16z"/>
<path d="M11456 6064 c-3 -9 -6 -303 -6 -655 0 -632 0 -639 20 -639 11 0 20
-7 20 -15 0 -32 36 -35 422 -33 l383 3 3 146 3 147 -26 6 c-16 4 -25 13 -25
25 0 10 -7 22 -16 25 -9 3 -110 6 -225 6 l-209 0 0 70 0 70 124 0 124 0 7 74
c9 99 -3 213 -24 229 -9 7 -21 21 -27 32 -10 17 -23 20 -100 23 -49 2 -93 7
-97 11 -5 5 -6 33 -2 63 l7 55 231 7 c127 4 235 10 239 12 4 3 8 70 8 149 0
135 -1 144 -20 150 -11 3 -20 13 -20 20 0 32 -40 35 -413 35 -333 0 -376 -2
-381 -16z m684 -169 c0 -13 -42 -15 -315 -15 -189 0 -315 4 -315 9 0 15 46 18
348 19 245 2 282 0 282 -13z m-35 -892 c31 -5 35 -8 20 -14 -25 -10 -561 -11
-595 -2 l-25 7 30 7 c39 9 519 11 570 2z"/>
<path d="M12586 6064 c-3 -9 -6 -303 -6 -654 0 -618 1 -639 19 -645 10 -3 21
-15 24 -25 5 -20 14 -20 404 -18 l398 3 3 153 c2 132 0 152 -13 152 -9 0 -20
11 -25 25 l-10 25 -225 0 -225 0 0 320 0 320 198 1 c108 0 220 4 247 7 l50 7
3 142 c2 135 2 142 -18 148 -11 3 -20 13 -20 20 0 32 -40 35 -418 35 -337 0
-381 -2 -386 -16z m694 -159 c0 -13 -43 -15 -327 -15 -212 0 -324 3 -317 10 9
9 109 13 482 18 138 2 162 0 162 -13z m0 -1000 c0 -13 -43 -15 -325 -15 -282
0 -325 2 -325 15 0 13 43 15 325 15 282 0 325 -2 325 -15z"/>
<path d="M13707 6073 c-4 -3 -7 -71 -7 -150 l0 -143 25 -10 c14 -5 25 -16 25
-24 0 -21 23 -26 109 -26 l78 0 6 -337 c4 -186 7 -396 7 -466 l0 -128 34 -35
34 -35 138 3 139 3 3 497 2 497 118 3 117 3 3 153 c2 140 1 152 -15 152 -10 0
-23 10 -28 23 l-10 22 -386 3 c-212 1 -388 -1 -392 -5z m448 -160 c126 -3 220
-10 210 -14 -11 -4 -154 -8 -317 -8 -259 -1 -298 1 -298 14 0 18 50 19 405 8z"/>
</g>
</svg>
