<?xml version="1.0" standalone="no"?>
<!DOCTYPE svg PUBLIC "-//W3C//DTD SVG 20010904//EN"
 "http://www.w3.org/TR/2001/REC-SVG-20010904/DTD/svg10.dtd">
<svg version="1.0" xmlns="http://www.w3.org/2000/svg"
 width="1920.000000pt" height="1080.000000pt" viewBox="0 0 1920.000000 1080.000000"
 preserveAspectRatio="xMidYMid meet">
<metadata>
Created by potrace 1.16, written by Peter Selinger 2001-2019
</metadata>
<g transform="translate(0.000000,1080.000000) scale(0.100000,-0.100000)"
fill="#000000" stroke="none">
<path d="M9743 6495 c-389 -71 -699 -350 -819 -740 -27 -85 -28 -100 -28 -285
0 -232 12 -290 98 -465 103 -209 260 -366 471 -470 173 -86 242 -100 470 -99
177 0 196 2 278 27 292 90 524 286 652 551 267 553 -10 1225 -592 1436 -160
57 -365 75 -530 45z m342 -340 c81 -21 209 -85 272 -137 108 -90 189 -214 235
-358 19 -63 23 -95 22 -200 0 -109 -4 -135 -28 -205 -51 -150 -142 -275 -261
-361 -248 -176 -552 -176 -800 0 -220 158 -334 442 -281 706 32 158 126 316
251 419 59 50 188 115 265 135 74 20 250 20 325 1z"/>
<path d="M13963 6496 c-394 -75 -699 -351 -819 -741 -27 -85 -28 -100 -28
-285 0 -232 12 -290 98 -465 103 -209 260 -366 471 -470 60 -30 146 -64 190
-76 90 -23 275 -36 379 -25 l66 8 0 170 0 171 -37 -7 c-105 -18 -182 -18 -263
-2 -455 93 -698 583 -495 1001 72 149 176 254 320 325 123 61 186 73 343 68
l132 -5 0 162 c0 160 0 163 -22 170 -47 14 -263 15 -335 1z"/>
<path d="M16102 6494 c-167 -45 -296 -163 -344 -316 -23 -74 -24 -230 -3 -311
44 -169 165 -301 395 -432 282 -161 370 -259 370 -413 0 -131 -112 -262 -224
-262 -46 0 -104 27 -147 70 -49 47 -69 94 -69 163 l0 37 -171 0 -172 0 5 -92
c9 -154 76 -286 194 -381 113 -92 214 -127 367 -127 158 0 264 46 382 164 78
79 133 173 161 276 24 87 24 253 0 335 -60 204 -192 342 -522 544 -132 80
-191 133 -220 196 -58 122 -1 225 124 225 83 0 132 -58 132 -157 l0 -33 175 0
174 0 -5 68 c-13 152 -49 238 -138 328 -113 113 -304 162 -464 118z"/>
<path d="M2330 5470 l0 -1030 170 0 c106 0 170 4 170 10 0 5 -11 263 -25 572
-14 310 -25 580 -23 601 2 27 54 -147 187 -635 101 -370 187 -679 191 -687 9
-18 -9 -80 201 687 133 488 185 662 187 635 2 -21 -9 -291 -23 -601 -14 -309
-25 -567 -25 -572 0 -6 64 -10 170 -10 l170 0 0 1030 0 1030 -162 0 -163 0
-175 -554 -175 -554 -35 112 c-20 61 -99 310 -175 553 l-140 443 -162 0 -163
0 0 -1030z"/>
<path d="M3793 6493 c2 -5 135 -278 295 -609 l292 -601 0 -421 0 -422 175 0
175 0 0 426 0 426 290 596 c160 328 290 600 290 604 0 4 -80 8 -178 8 l-177 0
-199 -410 c-110 -226 -203 -407 -208 -402 -4 4 -95 187 -201 407 l-194 400
-182 3 c-100 1 -181 -1 -178 -5z"/>
<path d="M6180 5471 l0 -1031 170 0 170 0 0 245 0 245 93 0 c362 1 663 246
742 604 24 109 17 321 -15 421 -80 253 -271 439 -530 516 -68 20 -103 23 -352
26 l-278 5 0 -1031z m530 672 c81 -22 144 -60 201 -120 195 -206 137 -582
-110 -707 -63 -32 -159 -56 -228 -56 l-53 0 0 456 0 456 68 -7 c37 -4 92 -13
122 -22z"/>
<path d="M7550 5471 l0 -1031 170 0 170 0 0 239 0 240 85 3 85 3 162 -242 161
-243 209 0 209 0 -44 63 c-25 34 -119 168 -210 297 l-164 234 41 26 c54 34
162 153 205 224 45 75 79 163 98 249 22 105 13 327 -17 422 -80 253 -271 439
-530 516 -68 20 -103 23 -352 26 l-278 5 0 -1031z m530 672 c81 -22 144 -60
201 -120 93 -98 134 -241 111 -388 -34 -216 -191 -354 -424 -372 l-78 -6 0
457 0 458 68 -7 c37 -4 92 -13 122 -22z"/>
<path d="M11220 6335 l0 -165 155 0 155 0 0 -567 c0 -371 -4 -588 -11 -630
-15 -83 -59 -150 -119 -180 -40 -21 -58 -23 -202 -23 l-158 0 0 -165 0 -165
193 0 c148 0 206 4 248 16 181 53 319 209 369 415 19 80 20 117 20 857 l0 772
-325 0 -325 0 0 -165z"/>
<path d="M12070 5470 l0 -1030 485 0 485 0 0 165 0 165 -315 0 -315 0 0 80 0
80 260 0 260 0 0 165 0 165 -260 0 -260 0 0 455 0 455 315 0 315 0 0 165 0
165 -485 0 -485 0 0 -1030z"/>
<path d="M14480 6335 l0 -165 200 0 200 0 0 -865 0 -865 175 0 175 0 0 865 0
865 200 0 200 0 0 165 0 165 -575 0 -575 0 0 -165z"/>
</g>
</svg>
