<?xml version="1.0" standalone="no"?>
<!DOCTYPE svg PUBLIC "-//W3C//DTD SVG 20010904//EN"
 "http://www.w3.org/TR/2001/REC-SVG-20010904/DTD/svg10.dtd">
<svg version="1.0" xmlns="http://www.w3.org/2000/svg"
 width="1920.000000pt" height="1080.000000pt" viewBox="0 0 1920.000000 1080.000000"
 preserveAspectRatio="xMidYMid meet">
<metadata>
Created by potrace 1.16, written by Peter Selinger 2001-2019
</metadata>
<g transform="translate(0.000000,1080.000000) scale(0.100000,-0.100000)"
fill="#000000" stroke="none">
<path d="M9640 6174 c-14 -2 -56 -9 -95 -15 -191 -30 -383 -155 -496 -323 -52
-78 -96 -190 -114 -291 -75 -434 168 -812 587 -910 107 -26 298 -23 403 4 359
95 577 380 577 756 0 65 -7 139 -16 180 -80 350 -359 579 -727 599 -52 2 -105
3 -119 0z m183 -359 c198 -42 327 -207 327 -420 0 -214 -131 -383 -331 -426
-76 -16 -212 -6 -282 21 -77 29 -154 93 -195 160 -44 74 -53 109 -59 222 -6
113 15 202 67 280 92 138 282 204 473 163z"/>
<path d="M13630 6174 c-14 -2 -56 -9 -95 -15 -180 -28 -362 -142 -481 -299
-38 -51 -100 -185 -119 -259 -37 -145 -29 -332 21 -475 40 -116 90 -195 183
-286 70 -70 104 -94 181 -133 130 -65 190 -79 355 -84 119 -4 154 -2 230 16
88 21 246 92 293 131 l24 20 -43 152 c-23 84 -43 154 -44 155 -1 2 -37 -15
-81 -37 -199 -101 -376 -120 -541 -59 -81 31 -181 131 -213 214 -34 88 -39
231 -12 322 48 158 165 255 340 284 123 20 269 -10 424 -87 37 -19 71 -34 76
-34 5 0 28 68 52 152 l42 152 -24 18 c-46 37 -225 117 -295 132 -75 17 -228
28 -273 20z"/>
<path d="M16055 6173 c-182 -25 -348 -130 -411 -260 -76 -155 -45 -365 72
-478 66 -65 181 -117 377 -170 93 -25 181 -52 195 -59 115 -60 97 -166 -37
-217 -70 -26 -208 -28 -296 -4 -72 19 -226 91 -290 135 -26 18 -48 30 -49 28
-2 -1 -22 -73 -46 -158 l-42 -154 38 -33 c52 -44 222 -129 309 -154 49 -15
111 -23 205 -26 116 -5 148 -2 219 15 179 46 311 143 377 278 32 64 37 85 42
166 8 155 -25 257 -111 346 -79 82 -183 128 -417 186 -159 40 -182 48 -210 76
-48 48 -3 110 96 130 100 21 237 -13 403 -101 52 -27 96 -48 97 -46 2 2 22 72
46 156 l42 153 -24 18 c-159 121 -415 196 -585 173z"/>
<path d="M2577 5437 c-43 -397 -81 -739 -84 -759 l-6 -38 180 0 180 0 23 268
c12 147 25 284 29 306 6 38 10 32 163 -265 l157 -304 74 -3 74 -3 161 313 c89
172 162 303 162 291 0 -12 11 -146 25 -299 14 -152 25 -283 25 -291 0 -10 37
-13 181 -13 l181 0 -5 33 c-3 17 -40 349 -82 737 -42 388 -78 715 -81 728 -4
21 -9 22 -92 22 l-87 0 -230 -476 -229 -476 -33 69 c-19 37 -123 251 -233 476
l-199 407 -88 0 -88 0 -78 -723z"/>
<path d="M4194 6144 c3 -9 123 -227 266 -485 l260 -468 0 -276 0 -275 180 0
180 0 0 281 0 280 254 457 c139 251 259 467 265 480 l12 22 -198 0 -198 -1
-150 -290 c-82 -160 -154 -297 -160 -304 -8 -11 -50 62 -168 290 l-158 305
-196 0 c-175 0 -195 -2 -189 -16z"/>
<path d="M6350 5400 l0 -760 175 0 175 0 0 219 0 218 143 6 c232 9 373 57 491
168 101 94 156 221 156 360 0 208 -99 373 -278 463 -142 71 -246 86 -598 86
l-264 0 0 -760z m611 396 c129 -30 192 -109 169 -213 -13 -55 -39 -85 -105
-118 -55 -27 -69 -30 -192 -33 l-133 -4 0 191 0 191 103 0 c56 0 127 -6 158
-14z"/>
<path d="M7690 5400 l0 -760 175 0 175 0 0 220 0 220 80 0 c44 0 83 1 87 1 4
1 68 -98 142 -220 l134 -221 199 0 c156 0 199 3 195 13 -2 6 -77 122 -165 257
l-161 245 42 21 c57 29 147 127 180 194 103 214 65 467 -94 614 -65 61 -161
114 -249 139 -100 29 -209 37 -476 37 l-264 0 0 -760z m611 396 c129 -30 192
-109 169 -213 -13 -55 -39 -85 -105 -118 -55 -27 -69 -30 -192 -33 l-133 -4 0
191 0 191 103 0 c56 0 127 -6 158 -14z"/>
<path d="M11200 5675 c0 -312 -4 -502 -11 -535 -23 -107 -112 -180 -221 -180
-76 0 -138 22 -227 81 -41 27 -76 47 -78 45 -6 -6 -83 -280 -83 -297 0 -37
109 -115 210 -150 77 -26 241 -31 330 -10 159 38 290 142 360 284 75 154 74
140 78 725 l3 522 -180 0 -181 0 0 -485z"/>
<path d="M11820 5400 l0 -760 485 0 485 0 0 165 0 165 -310 0 -310 0 0 140 0
140 300 0 300 0 0 165 0 165 -300 0 -300 0 0 125 0 125 310 0 310 0 0 165 0
165 -485 0 -485 0 0 -760z"/>
<path d="M14320 5995 l0 -165 190 0 190 0 0 -595 0 -595 175 0 175 0 0 595 0
595 190 0 190 0 0 165 0 165 -555 0 -555 0 0 -165z"/>
</g>
</svg>
