<?xml version="1.0" standalone="no"?>
<!DOCTYPE svg PUBLIC "-//W3C//DTD SVG 20010904//EN"
 "http://www.w3.org/TR/2001/REC-SVG-20010904/DTD/svg10.dtd">
<svg version="1.0" xmlns="http://www.w3.org/2000/svg"
 width="1920.000000pt" height="1080.000000pt" viewBox="0 0 1920.000000 1080.000000"
 preserveAspectRatio="xMidYMid meet">
<metadata>
Created by potrace 1.16, written by Peter Selinger 2001-2019
</metadata>
<g transform="translate(0.000000,1080.000000) scale(0.100000,-0.100000)"
fill="#000000" stroke="none">
<path d="M1169 6217 c-187 -64 -289 -220 -289 -443 0 -156 34 -257 117 -345
85 -91 188 -129 353 -129 108 0 172 12 267 51 l53 21 0 109 c0 104 -1 109 -21
109 -12 0 -38 -13 -59 -30 -67 -53 -138 -80 -210 -80 -156 1 -250 110 -250
290 0 90 23 162 68 212 50 56 102 78 182 78 73 0 124 -20 200 -75 26 -19 57
-35 69 -35 20 0 21 5 21 110 l0 109 -47 21 c-125 56 -334 68 -454 27z"/>
<path d="M2078 6221 c-80 -26 -139 -63 -187 -117 -76 -87 -111 -192 -111 -334
0 -235 103 -390 301 -451 68 -21 233 -26 308 -8 119 27 228 117 281 231 69
150 58 376 -26 508 -53 84 -156 157 -254 179 -74 17 -247 13 -312 -8z m289
-197 c74 -61 108 -180 91 -321 -10 -83 -41 -146 -91 -187 -34 -27 -48 -31
-110 -34 -66 -3 -76 -1 -118 26 -67 43 -100 114 -107 230 -8 143 32 249 111
297 37 23 51 26 114 23 63 -3 76 -7 110 -34z"/>
<path d="M6289 6217 c-187 -64 -289 -220 -289 -443 0 -156 34 -257 117 -345
85 -91 188 -129 353 -129 108 0 172 12 267 51 l53 21 0 109 c0 104 -1 109 -21
109 -12 0 -38 -13 -59 -30 -67 -53 -138 -80 -210 -80 -156 1 -250 110 -250
290 0 90 23 162 68 212 50 56 102 78 182 78 73 0 124 -20 200 -75 26 -19 57
-35 69 -35 20 0 21 5 21 110 l0 109 -47 21 c-125 56 -334 68 -454 27z"/>
<path d="M8800 6225 c-107 -30 -195 -101 -226 -181 -22 -57 -16 -165 12 -219
42 -81 128 -125 327 -170 135 -30 162 -47 162 -100 0 -49 -32 -74 -106 -84
-107 -13 -232 19 -330 85 -85 57 -89 53 -89 -79 l0 -114 93 -29 c86 -27 102
-29 257 -29 148 0 171 3 222 23 76 31 142 83 175 140 25 41 28 57 28 133 0 78
-3 90 -30 134 -43 69 -115 106 -293 148 -171 41 -194 54 -190 104 5 57 41 77
143 81 99 5 165 -12 249 -63 93 -56 96 -54 96 70 l0 105 -27 11 c-82 31 -148
42 -278 45 -104 3 -154 0 -195 -11z"/>
<path d="M2880 5770 l0 -450 110 0 110 0 0 302 0 302 187 -302 186 -302 119 0
118 0 0 450 0 450 -110 0 -110 0 -2 -247 -3 -248 -156 245 -155 245 -147 3
-147 3 0 -451z"/>
<path d="M3840 6135 l0 -85 140 0 140 0 0 -365 0 -365 120 0 120 0 0 365 0
365 145 0 145 0 0 85 0 85 -405 0 -405 0 0 -85z"/>
<path d="M4780 5770 l0 -450 330 0 330 0 0 85 0 85 -210 0 -210 0 0 115 0 115
195 0 195 0 0 85 0 85 -195 0 -195 0 0 80 0 80 210 0 210 0 0 85 0 85 -330 0
-330 0 0 -450z"/>
<path d="M6950 5771 l0 -451 120 0 120 0 0 165 0 165 48 0 47 0 124 -165 123
-165 150 0 150 0 -50 63 c-27 34 -94 120 -150 191 l-100 130 41 26 c94 61 129
125 130 235 0 82 -17 127 -64 174 -71 72 -91 76 -406 79 l-283 3 0 -450z m379
280 c94 -11 124 -37 124 -105 0 -88 -43 -120 -175 -130 l-88 -7 0 125 0 126
33 0 c17 -1 65 -5 106 -9z"/>
<path d="M7880 6140 l0 -80 75 0 75 0 0 -290 0 -290 -75 0 -75 0 0 -80 0 -80
270 0 270 0 0 80 0 80 -75 0 -75 0 0 290 0 290 75 0 75 0 0 80 0 80 -270 0
-270 0 0 -80z"/>
<path d="M9390 6135 l0 -85 140 0 140 0 0 -365 0 -365 120 0 120 0 0 365 0
365 145 0 145 0 0 85 0 85 -405 0 -405 0 0 -85z"/>
<path d="M10290 6140 l0 -80 75 0 75 0 0 -290 0 -290 -75 0 -75 0 0 -80 0 -80
270 0 270 0 0 80 0 80 -75 0 -75 0 0 290 0 290 75 0 75 0 0 80 0 80 -270 0
-270 0 0 -80z"/>
<path d="M11235 6203 c-3 -10 -76 -205 -160 -433 -85 -228 -157 -423 -160
-432 -7 -17 3 -18 117 -18 l124 0 30 93 30 92 161 3 161 2 32 -95 32 -95 124
0 c68 0 124 3 124 8 -1 4 -74 205 -164 447 l-163 440 -140 3 c-127 2 -141 1
-148 -15z m199 -392 c25 -73 46 -135 46 -137 0 -2 -45 -4 -100 -4 -55 0 -100
3 -100 8 0 23 94 282 101 275 4 -4 28 -68 53 -142z"/>
<path d="M11970 5770 l0 -450 110 0 110 0 0 302 0 302 187 -302 186 -302 119
0 118 0 0 450 0 450 -110 0 -110 0 -2 -247 -3 -248 -156 245 -155 245 -147 3
-147 3 0 -451z"/>
<path d="M13440 5770 l0 -450 230 0 c132 0 251 5 282 11 211 45 348 218 348
437 -1 137 -39 238 -121 321 -111 110 -190 131 -506 131 l-233 0 0 -450z m440
258 c99 -31 159 -113 168 -228 14 -194 -74 -291 -275 -304 l-93 -7 0 281 0
280 83 -6 c45 -3 98 -11 117 -16z"/>
<path d="M14695 6203 c-3 -10 -76 -205 -160 -433 -85 -228 -157 -423 -160
-432 -7 -17 3 -18 117 -18 l124 0 30 93 30 92 161 3 161 2 32 -95 32 -95 124
0 c68 0 124 3 124 8 -1 4 -74 205 -164 447 l-163 440 -140 3 c-127 2 -141 1
-148 -15z m199 -392 c25 -73 46 -135 46 -137 0 -2 -45 -4 -100 -4 -55 0 -100
3 -100 8 0 23 94 282 101 275 4 -4 28 -68 53 -142z"/>
<path d="M15335 6203 c3 -10 76 -211 163 -448 l158 -430 138 0 138 0 144 395
c79 217 153 419 164 448 l20 53 -127 -3 -126 -3 -103 -299 c-57 -165 -105
-300 -107 -302 -1 -2 -50 134 -107 301 l-105 305 -128 0 c-118 0 -128 -1 -122
-17z"/>
<path d="M16340 6140 l0 -80 75 0 75 0 0 -290 0 -290 -75 0 -75 0 0 -80 0 -80
270 0 270 0 0 80 0 80 -75 0 -75 0 0 290 0 290 75 0 75 0 0 80 0 80 -270 0
-270 0 0 -80z"/>
<path d="M17060 5770 l0 -450 230 0 c132 0 251 5 282 11 211 45 348 218 348
437 -1 137 -39 238 -121 321 -111 110 -190 131 -506 131 l-233 0 0 -450z m440
258 c99 -31 159 -113 168 -228 14 -194 -74 -291 -275 -304 l-93 -7 0 281 0
280 83 -6 c45 -3 98 -11 117 -16z"/>
<path d="M18090 5770 l0 -450 330 0 330 0 0 85 0 85 -210 0 -210 0 0 115 0
115 195 0 195 0 0 85 0 85 -195 0 -195 0 0 80 0 80 210 0 210 0 0 85 0 85
-330 0 -330 0 0 -450z"/>
</g>
</svg>
